<mxfile host="app.diagrams.net" modified="2021-06-08T09:41:30.135Z" agent="5.0 (Macintosh; Intel Mac OS X 10_14_6) AppleWebKit/537.36 (KHTML, like Gecko) Chrome/91.0.4472.77 Safari/537.36" etag="2p3YNqFCYfM-rNMlrMgV" version="14.7.3" type="github">
  <diagram id="FfYfa9T0dV0FmIXSaWDp" name="Page-1">
    <mxGraphModel dx="900" dy="831" grid="1" gridSize="10" guides="1" tooltips="1" connect="1" arrows="1" fold="1" page="1" pageScale="1" pageWidth="827" pageHeight="1169" math="0" shadow="0">
      <root>
        <mxCell id="0" />
        <mxCell id="1" parent="0" />
        <mxCell id="dXU4NItfeEmKNi_qsTSw-1" value="" style="ellipse;whiteSpace=wrap;html=1;aspect=fixed;fillColor=#008a00;strokeColor=#005700;fontColor=#ffffff;" vertex="1" parent="1">
          <mxGeometry x="374" y="200" width="80" height="80" as="geometry" />
        </mxCell>
        <mxCell id="dXU4NItfeEmKNi_qsTSw-2" value="" style="ellipse;whiteSpace=wrap;html=1;aspect=fixed;strokeColor=#b46504;fillColor=#FFFF00;" vertex="1" parent="1">
          <mxGeometry x="480" y="390" width="80" height="80" as="geometry" />
        </mxCell>
        <mxCell id="dXU4NItfeEmKNi_qsTSw-3" value="" style="ellipse;whiteSpace=wrap;html=1;aspect=fixed;fillColor=#e51400;strokeColor=#B20000;fontColor=#ffffff;" vertex="1" parent="1">
          <mxGeometry x="240" y="390" width="80" height="80" as="geometry" />
        </mxCell>
        <mxCell id="dXU4NItfeEmKNi_qsTSw-6" value="" style="endArrow=classic;html=1;exitX=1;exitY=1;exitDx=0;exitDy=0;strokeWidth=2;" edge="1" parent="1" source="dXU4NItfeEmKNi_qsTSw-1" target="dXU4NItfeEmKNi_qsTSw-2">
          <mxGeometry width="50" height="50" relative="1" as="geometry">
            <mxPoint x="390" y="450" as="sourcePoint" />
            <mxPoint x="440" y="400" as="targetPoint" />
          </mxGeometry>
        </mxCell>
        <mxCell id="dXU4NItfeEmKNi_qsTSw-7" value="3 s" style="text;html=1;strokeColor=none;fillColor=none;align=center;verticalAlign=middle;whiteSpace=wrap;rounded=0;fontSize=30;" vertex="1" parent="1">
          <mxGeometry x="495" y="310" width="50" height="20" as="geometry" />
        </mxCell>
        <mxCell id="dXU4NItfeEmKNi_qsTSw-8" value="" style="endArrow=classic;html=1;exitX=-0.025;exitY=0.588;exitDx=0;exitDy=0;exitPerimeter=0;entryX=1.038;entryY=0.588;entryDx=0;entryDy=0;entryPerimeter=0;strokeWidth=2;" edge="1" parent="1" source="dXU4NItfeEmKNi_qsTSw-2" target="dXU4NItfeEmKNi_qsTSw-3">
          <mxGeometry width="50" height="50" relative="1" as="geometry">
            <mxPoint x="390" y="450" as="sourcePoint" />
            <mxPoint x="440" y="400" as="targetPoint" />
          </mxGeometry>
        </mxCell>
        <mxCell id="dXU4NItfeEmKNi_qsTSw-9" value="1 s" style="text;html=1;strokeColor=none;fillColor=none;align=center;verticalAlign=middle;whiteSpace=wrap;rounded=0;strokeWidth=4;fontSize=30;" vertex="1" parent="1">
          <mxGeometry x="384" y="460" width="60" height="20" as="geometry" />
        </mxCell>
        <mxCell id="dXU4NItfeEmKNi_qsTSw-10" value="2 s" style="text;html=1;strokeColor=none;fillColor=none;align=center;verticalAlign=middle;whiteSpace=wrap;rounded=0;fontSize=30;fontStyle=0" vertex="1" parent="1">
          <mxGeometry x="260" y="310" width="60" height="20" as="geometry" />
        </mxCell>
        <mxCell id="dXU4NItfeEmKNi_qsTSw-11" value="" style="endArrow=classic;html=1;entryX=0;entryY=1;entryDx=0;entryDy=0;strokeWidth=2;" edge="1" parent="1" source="dXU4NItfeEmKNi_qsTSw-3" target="dXU4NItfeEmKNi_qsTSw-1">
          <mxGeometry width="50" height="50" relative="1" as="geometry">
            <mxPoint x="390" y="450" as="sourcePoint" />
            <mxPoint x="440" y="400" as="targetPoint" />
          </mxGeometry>
        </mxCell>
      </root>
    </mxGraphModel>
  </diagram>
</mxfile>
